<svg width="18" height="19" viewBox="0 0 18 19" fill="none" xmlns="http://www.w3.org/2000/svg">
<path d="M9 14.0894C9.28333 14.0894 9.521 13.9934 9.713 13.8014C9.905 13.6094 10.0007 13.372 10 13.0894C10 12.806 9.904 12.5687 9.712 12.3774C9.52 12.186 9.28267 12.09 9 12.0894C8.71667 12.0894 8.47933 12.1854 8.288 12.3774C8.09667 12.5694 8.00067 12.8067 8 13.0894C8 13.3727 8.096 13.6104 8.288 13.8024C8.48 13.9944 8.71733 14.09 9 14.0894ZM8 10.0894H10V4.08936H8V10.0894ZM5.25 18.0894L0 12.8394V5.33936L5.25 0.0893555H12.75L18 5.33936V12.8394L12.75 18.0894H5.25Z" fill="#FDFDFF"/>
</svg>
