<svg width="24" height="25" viewBox="0 0 24 25" fill="none" xmlns="http://www.w3.org/2000/svg">
<path d="M9.88845 5.82224C8.46989 5.14496 6.48713 4.81319 3.83258 4.80141C3.58223 4.79801 3.33679 4.87101 3.12899 5.01068C2.95843 5.12597 2.81881 5.2814 2.72242 5.46331C2.62602 5.64522 2.5758 5.84802 2.57617 6.05389V17.2869C2.57617 18.0463 3.11643 18.6191 3.83258 18.6191C6.62298 18.6191 9.42201 18.8798 11.0985 20.4645C11.1215 20.4862 11.1503 20.5008 11.1814 20.5063C11.2126 20.5119 11.2446 20.5081 11.2737 20.4956C11.3027 20.483 11.3274 20.4622 11.3447 20.4358C11.362 20.4093 11.3712 20.3783 11.371 20.3467V7.11084C11.3711 7.02154 11.352 6.93327 11.315 6.85199C11.278 6.7707 11.224 6.69831 11.1566 6.63969C10.7726 6.31139 10.346 6.03643 9.88845 5.82224ZM20.8694 5.00951C20.6615 4.87018 20.4161 4.79759 20.1659 4.80141C17.5113 4.81319 15.5285 5.14339 14.11 5.82224C13.6524 6.03604 13.2257 6.31046 12.8414 6.63812C12.7742 6.69684 12.7203 6.76926 12.6834 6.85053C12.6465 6.9318 12.6274 7.02002 12.6274 7.10927V20.3459C12.6274 20.3763 12.6364 20.406 12.6532 20.4313C12.67 20.4566 12.6939 20.4764 12.7219 20.4882C12.7499 20.5 12.7808 20.5033 12.8106 20.4976C12.8405 20.4919 12.868 20.4775 12.8897 20.4562C13.8976 19.455 15.6664 18.618 20.1674 18.6183C20.5006 18.6183 20.8202 18.486 21.0558 18.2503C21.2915 18.0147 21.4238 17.6952 21.4238 17.3619V6.05429C21.4243 5.84801 21.374 5.64479 21.2773 5.46258C21.1806 5.28037 21.0405 5.12476 20.8694 5.00951Z" fill="#0E0E0E"/>
</svg>
