<svg width="25" height="25" viewBox="0 0 25 25" fill="none" xmlns="http://www.w3.org/2000/svg">
<path d="M17.4604 4.38617V2.82617C17.4604 2.41617 17.1204 2.07617 16.7104 2.07617C16.3004 2.07617 15.9604 2.41617 15.9604 2.82617V4.32617H9.46043V2.82617C9.46043 2.41617 9.12043 2.07617 8.71043 2.07617C8.30043 2.07617 7.96043 2.41617 7.96043 2.82617V4.38617C5.26043 4.63617 3.95043 6.24617 3.75043 8.63617C3.73043 8.92617 3.97043 9.16617 4.25043 9.16617H21.1704C21.4604 9.16617 21.7004 8.91617 21.6704 8.63617C21.4704 6.24617 20.1604 4.63617 17.4604 4.38617Z" fill="#0E0E0E"/>
<path d="M20.7104 10.6663H4.71045C4.16045 10.6663 3.71045 11.1163 3.71045 11.6663V17.8263C3.71045 20.8263 5.21045 22.8263 8.71045 22.8263H16.7104C20.2104 22.8263 21.7104 20.8263 21.7104 17.8263V11.6663C21.7104 11.1163 21.2604 10.6663 20.7104 10.6663ZM9.92045 19.0363C9.87045 19.0763 9.82045 19.1263 9.77045 19.1563C9.71045 19.1963 9.65045 19.2263 9.59045 19.2463C9.53045 19.2763 9.47045 19.2963 9.41045 19.3063C9.34045 19.3163 9.28045 19.3263 9.21045 19.3263C9.08045 19.3263 8.95045 19.2963 8.83045 19.2463C8.70045 19.1963 8.60045 19.1263 8.50045 19.0363C8.32045 18.8463 8.21045 18.5863 8.21045 18.3263C8.21045 18.0663 8.32045 17.8063 8.50045 17.6163C8.60045 17.5263 8.70045 17.4563 8.83045 17.4063C9.01045 17.3263 9.21045 17.3063 9.41045 17.3463C9.47045 17.3563 9.53045 17.3763 9.59045 17.4063C9.65045 17.4263 9.71045 17.4563 9.77045 17.4963C9.82045 17.5363 9.87045 17.5763 9.92045 17.6163C10.1004 17.8063 10.2104 18.0663 10.2104 18.3263C10.2104 18.5863 10.1004 18.8463 9.92045 19.0363ZM9.92045 15.5363C9.73045 15.7163 9.47045 15.8263 9.21045 15.8263C8.95045 15.8263 8.69045 15.7163 8.50045 15.5363C8.32045 15.3463 8.21045 15.0863 8.21045 14.8263C8.21045 14.5663 8.32045 14.3063 8.50045 14.1163C8.78045 13.8363 9.22045 13.7463 9.59045 13.9063C9.72045 13.9563 9.83045 14.0263 9.92045 14.1163C10.1004 14.3063 10.2104 14.5663 10.2104 14.8263C10.2104 15.0863 10.1004 15.3463 9.92045 15.5363ZM13.4204 19.0363C13.2304 19.2163 12.9704 19.3263 12.7104 19.3263C12.4504 19.3263 12.1904 19.2163 12.0004 19.0363C11.8204 18.8463 11.7104 18.5863 11.7104 18.3263C11.7104 18.0663 11.8204 17.8063 12.0004 17.6163C12.3704 17.2463 13.0504 17.2463 13.4204 17.6163C13.6004 17.8063 13.7104 18.0663 13.7104 18.3263C13.7104 18.5863 13.6004 18.8463 13.4204 19.0363ZM13.4204 15.5363C13.3704 15.5763 13.3204 15.6163 13.2704 15.6563C13.2104 15.6963 13.1504 15.7263 13.0904 15.7463C13.0304 15.7763 12.9704 15.7963 12.9104 15.8063C12.8404 15.8163 12.7804 15.8263 12.7104 15.8263C12.4504 15.8263 12.1904 15.7163 12.0004 15.5363C11.8204 15.3463 11.7104 15.0863 11.7104 14.8263C11.7104 14.5663 11.8204 14.3063 12.0004 14.1163C12.0904 14.0263 12.2004 13.9563 12.3304 13.9063C12.7004 13.7463 13.1404 13.8363 13.4204 14.1163C13.6004 14.3063 13.7104 14.5663 13.7104 14.8263C13.7104 15.0863 13.6004 15.3463 13.4204 15.5363ZM16.9204 19.0363C16.7304 19.2163 16.4704 19.3263 16.2104 19.3263C15.9504 19.3263 15.6904 19.2163 15.5004 19.0363C15.3204 18.8463 15.2104 18.5863 15.2104 18.3263C15.2104 18.0663 15.3204 17.8063 15.5004 17.6163C15.8704 17.2463 16.5504 17.2463 16.9204 17.6163C17.1004 17.8063 17.2104 18.0663 17.2104 18.3263C17.2104 18.5863 17.1004 18.8463 16.9204 19.0363ZM16.9204 15.5363C16.8704 15.5763 16.8204 15.6163 16.7704 15.6563C16.7104 15.6963 16.6504 15.7263 16.5904 15.7463C16.5304 15.7763 16.4704 15.7963 16.4104 15.8063C16.3404 15.8163 16.2704 15.8263 16.2104 15.8263C15.9504 15.8263 15.6904 15.7163 15.5004 15.5363C15.3204 15.3463 15.2104 15.0863 15.2104 14.8263C15.2104 14.5663 15.3204 14.3063 15.5004 14.1163C15.6004 14.0263 15.7004 13.9563 15.8304 13.9063C16.0104 13.8263 16.2104 13.8063 16.4104 13.8463C16.4704 13.8563 16.5304 13.8763 16.5904 13.9063C16.6504 13.9263 16.7104 13.9563 16.7704 13.9963C16.8204 14.0363 16.8704 14.0763 16.9204 14.1163C17.1004 14.3063 17.2104 14.5663 17.2104 14.8263C17.2104 15.0863 17.1004 15.3463 16.9204 15.5363Z" fill="#0E0E0E"/>
</svg>
