<svg width="22" height="21" viewBox="0 0 22 21" fill="none" xmlns="http://www.w3.org/2000/svg">
<path d="M2.9375 0.655273C2.29103 0.655273 1.67105 0.912081 1.21393 1.3692C0.756807 1.82632 0.5 2.44631 0.5 3.09277V9.03277C1.32537 7.98144 2.52065 7.28449 3.84215 7.08405C5.16365 6.8836 6.51184 7.19474 7.61185 7.95403C8.71185 8.71332 9.48083 9.86359 9.762 11.1703C10.0432 12.477 9.81535 13.8417 9.125 14.9863V16.4053H19.0625C19.709 16.4053 20.329 16.1485 20.7861 15.6913C21.2432 15.2342 21.5 14.6142 21.5 13.9678V3.09277C21.5 2.44631 21.2432 1.82632 20.7861 1.3692C20.329 0.912081 19.709 0.655273 19.0625 0.655273H2.9375ZM5.75 5.15527H16.25C16.4489 5.15527 16.6397 5.23429 16.7803 5.37494C16.921 5.5156 17 5.70636 17 5.90527C17 6.10419 16.921 6.29495 16.7803 6.4356C16.6397 6.57626 16.4489 6.65527 16.25 6.65527H5.75C5.55109 6.65527 5.36032 6.57626 5.21967 6.4356C5.07902 6.29495 5 6.10419 5 5.90527C5 5.70636 5.07902 5.5156 5.21967 5.37494C5.36032 5.23429 5.55109 5.15527 5.75 5.15527ZM11 11.1553C11 10.9564 11.079 10.7656 11.2197 10.6249C11.3603 10.4843 11.5511 10.4053 11.75 10.4053H16.25C16.4489 10.4053 16.6397 10.4843 16.7803 10.6249C16.921 10.7656 17 10.9564 17 11.1553C17 11.3542 16.921 11.545 16.7803 11.6856C16.6397 11.8263 16.4489 11.9053 16.25 11.9053H11.75C11.5511 11.9053 11.3603 11.8263 11.2197 11.6856C11.079 11.545 11 11.3542 11 11.1553ZM8.75 12.2803C8.75 13.3743 8.3154 14.4235 7.54182 15.1971C6.76823 15.9707 5.71902 16.4053 4.625 16.4053C3.53098 16.4053 2.48177 15.9707 1.70818 15.1971C0.934597 14.4235 0.5 13.3743 0.5 12.2803C0.5 11.1863 0.934597 10.137 1.70818 9.36346C2.48177 8.58987 3.53098 8.15527 4.625 8.15527C5.71902 8.15527 6.76823 8.58987 7.54182 9.36346C8.3154 10.137 8.75 11.1863 8.75 12.2803ZM8 16.3018C7.05533 17.0969 5.85976 17.5321 4.625 17.5303C3.39024 17.5321 2.19467 17.0969 1.25 16.3018V19.4053C1.25003 19.539 1.28581 19.6703 1.35363 19.7855C1.42145 19.9007 1.51885 19.9957 1.63573 20.0607C1.75261 20.1256 1.88473 20.1581 2.01841 20.1549C2.15208 20.1516 2.28244 20.1126 2.396 20.042L4.625 18.6545L6.854 20.042C6.96761 20.1127 7.09804 20.1516 7.23178 20.1549C7.36552 20.1581 7.49769 20.1255 7.6146 20.0605C7.7315 19.9955 7.82889 19.9004 7.89665 19.785C7.96442 19.6697 8.0001 19.5383 8 19.4045V16.3018Z" fill="black"/>
</svg>
