<svg width="21" height="21" viewBox="0 0 21 21" fill="none" xmlns="http://www.w3.org/2000/svg">
<path d="M10.2896 18.5C12.4113 18.5 14.4461 17.6571 15.9464 16.1569C17.4467 14.6566 18.2896 12.6217 18.2896 10.5C18.2896 8.37827 17.4467 6.34344 15.9464 4.84315C14.4461 3.34285 12.4113 2.5 10.2896 2.5C8.16782 2.5 6.13299 3.34285 4.6327 4.84315C3.13241 6.34344 2.28955 8.37827 2.28955 10.5C2.28955 12.6217 3.13241 14.6566 4.6327 16.1569C6.13299 17.6571 8.16782 18.5 10.2896 18.5ZM10.2896 0.5C11.6028 0.5 12.9031 0.758658 14.1164 1.2612C15.3296 1.76375 16.432 2.50035 17.3606 3.42893C18.2892 4.35752 19.0258 5.45991 19.5283 6.67317C20.0309 7.88642 20.2896 9.18678 20.2896 10.5C20.2896 13.1522 19.236 15.6957 17.3606 17.5711C15.4853 19.4464 12.9417 20.5 10.2896 20.5C4.75955 20.5 0.289551 16 0.289551 10.5C0.289551 7.84784 1.34312 5.3043 3.21848 3.42893C5.09385 1.55357 7.63739 0.5 10.2896 0.5ZM10.7896 5.5V10.75L15.2896 13.42L14.5396 14.65L9.28955 11.5V5.5H10.7896Z" fill="#1FA7A8"/>
</svg>
