<svg width="24" height="25" viewBox="0 0 24 25" fill="none" xmlns="http://www.w3.org/2000/svg">
<g clip-path="url(#clip0_159_754)">
<path d="M12.0001 4.26709L0.00012207 8.7672L12.0001 14.7672L17.7156 11.9095L12.3538 10.2702C12.2434 10.3231 12.1226 10.3507 12.0001 10.351C11.7821 10.351 11.5729 10.2644 11.4187 10.1102C11.2645 9.95599 11.1779 9.74685 11.1779 9.52879C11.1779 9.31072 11.2645 9.10159 11.4187 8.94739C11.5729 8.79319 11.7821 8.70657 12.0001 8.70657L11.8641 9.14861L12.8167 9.44168C12.8169 9.44264 12.817 9.4436 12.8172 9.44456L14.2228 9.87443L22.2265 12.3369V12.9611C22.1158 13.0364 22.0252 13.1376 21.9625 13.2559C21.8998 13.3742 21.8669 13.5061 21.8668 13.6399C21.8669 13.7769 21.9013 13.9117 21.9667 14.032C22.0322 14.1523 22.1266 14.2543 22.2415 14.3289C21.8673 15.7433 21.8668 18.9526 21.8668 20.2177C22.689 20.7518 22.689 20.7714 23.5112 20.2177C23.5112 18.9528 23.5108 15.7441 23.1366 14.3293C23.2515 14.2547 23.346 14.1526 23.4114 14.0322C23.4769 13.9118 23.5112 13.7769 23.5112 13.6399C23.5112 13.5059 23.4784 13.3739 23.4157 13.2554C23.353 13.1369 23.2623 13.0356 23.1515 12.9602V11.6539L20.1029 10.7159L24.0001 8.7672L12.0001 4.26709ZM4.99187 12.4579L4.3175 16.5043C5.6626 16.6802 7.27163 17.462 8.75081 18.3865C9.59204 18.9123 10.38 19.4895 11.0199 20.0495C11.4111 20.3917 11.7382 20.7201 12.0001 21.0432C12.2621 20.72 12.5891 20.3917 12.9803 20.0495C13.6203 19.4895 14.4081 18.9123 15.2494 18.3865C16.7286 17.462 18.3376 16.6802 19.6827 16.5043L19.0083 12.4579H18.6871L12.0001 15.8015L5.31305 12.4579H4.99187Z" fill="black"/>
</g>
<defs>
<clipPath id="clip0_159_754">
<rect width="24" height="24" fill="white" transform="translate(0 0.655273)"/>
</clipPath>
</defs>
</svg>
