<svg width="25" height="25" viewBox="0 0 25 25" fill="none" xmlns="http://www.w3.org/2000/svg">
<g clip-path="url(#clip0_123_442)">
<path d="M24.7104 12.8262C24.7104 6.1988 19.3378 0.826172 12.7104 0.826172C6.08307 0.826172 0.710449 6.1988 0.710449 12.8262C0.710449 18.8157 5.0987 23.7802 10.8354 24.6804V16.2949H7.78857V12.8262H10.8354V10.1824C10.8354 7.17492 12.627 5.51367 15.3681 5.51367C16.681 5.51367 18.0542 5.74805 18.0542 5.74805V8.70117H16.5411C15.0504 8.70117 14.5854 9.6262 14.5854 10.5752V12.8262H17.9136L17.3815 16.2949H14.5854V24.6804C20.3222 23.7802 24.7104 18.8158 24.7104 12.8262Z" fill="#1877F2"/>
<path d="M17.3815 16.2949L17.9136 12.8262H14.5854V10.5752C14.5854 9.62611 15.0504 8.70117 16.5411 8.70117H18.0542V5.74805C18.0542 5.74805 16.6809 5.51367 15.368 5.51367C12.627 5.51367 10.8354 7.17492 10.8354 10.1824V12.8262H7.78857V16.2949H10.8354V24.6804C11.4557 24.7776 12.0826 24.8263 12.7104 24.8262C13.3383 24.8264 13.9652 24.7776 14.5854 24.6804V16.2949H17.3815Z" fill="white"/>
</g>
<defs>
<clipPath id="clip0_123_442">
<rect width="24" height="24" fill="white" transform="translate(0.710449 0.826172)"/>
</clipPath>
</defs>
</svg>
