<svg width="25" height="25" viewBox="0 0 25 25" fill="none" xmlns="http://www.w3.org/2000/svg">
<path d="M22.6519 12.7612C22.6519 7.25123 18.1619 2.76123 12.6519 2.76123C7.14186 2.76123 2.65186 7.25123 2.65186 12.7612C2.65186 15.6612 3.90186 18.2712 5.88186 20.1012C5.88186 20.1112 5.88186 20.1112 5.87186 20.1212C5.97186 20.2212 6.09186 20.3012 6.19186 20.3912C6.25186 20.4412 6.30186 20.4912 6.36186 20.5312C6.54186 20.6812 6.74186 20.8212 6.93186 20.9612C7.00186 21.0112 7.06186 21.0512 7.13186 21.1012C7.32186 21.2312 7.52186 21.3512 7.73186 21.4612C7.80186 21.5012 7.88186 21.5512 7.95186 21.5912C8.15186 21.7012 8.36186 21.8012 8.58186 21.8912C8.66186 21.9312 8.74186 21.9712 8.82186 22.0012C9.04186 22.0912 9.26186 22.1712 9.48186 22.2412C9.56186 22.2712 9.64186 22.3012 9.72186 22.3212C9.96185 22.3912 10.2019 22.4512 10.4419 22.5112C10.5119 22.5312 10.5819 22.5512 10.6619 22.5612C10.9419 22.6212 11.2219 22.6612 11.5119 22.6912C11.5519 22.6912 11.5919 22.7012 11.6319 22.7112C11.9719 22.7412 12.3119 22.7612 12.6519 22.7612C12.9919 22.7612 13.3319 22.7412 13.6619 22.7112C13.7019 22.7112 13.7419 22.7012 13.7819 22.6912C14.0719 22.6612 14.3519 22.6212 14.6319 22.5612C14.7019 22.5512 14.7719 22.5212 14.8519 22.5112C15.0919 22.4512 15.3419 22.4012 15.5719 22.3212C15.6519 22.2912 15.7319 22.2612 15.8119 22.2412C16.0319 22.1612 16.2619 22.0912 16.4719 22.0012C16.5519 21.9712 16.6319 21.9312 16.7119 21.8912C16.9219 21.8012 17.1319 21.7012 17.3419 21.5912C17.4219 21.5512 17.4919 21.5012 17.5619 21.4612C17.7619 21.3412 17.9619 21.2312 18.1619 21.1012C18.2319 21.0612 18.2919 21.0112 18.3619 20.9612C18.5619 20.8212 18.7519 20.6812 18.9319 20.5312C18.9919 20.4812 19.0419 20.4312 19.1019 20.3912C19.2119 20.3012 19.3219 20.2112 19.4219 20.1212C19.4219 20.1112 19.4219 20.1112 19.4119 20.1012C21.4019 18.2712 22.6519 15.6612 22.6519 12.7612ZM17.5919 17.7312C14.8819 15.9112 10.4419 15.9112 7.71186 17.7312C7.27186 18.0212 6.91186 18.3612 6.61186 18.7312C5.09186 17.1912 4.15186 15.0812 4.15186 12.7612C4.15186 8.07123 7.96186 4.26123 12.6519 4.26123C17.3419 4.26123 21.1519 8.07123 21.1519 12.7612C21.1519 15.0812 20.2119 17.1912 18.6919 18.7312C18.4019 18.3612 18.0319 18.0212 17.5919 17.7312Z" fill="#0E0E0E" fill-opacity="0.3"/>
<path d="M12.6519 7.69141C10.5819 7.69141 8.90186 9.37141 8.90186 11.4414C8.90186 13.4714 10.4919 15.1214 12.6019 15.1814C12.6319 15.1814 12.6719 15.1814 12.6919 15.1814C12.7119 15.1814 12.7419 15.1814 12.7619 15.1814C12.7719 15.1814 12.7819 15.1814 12.7819 15.1814C14.8019 15.1114 16.3919 13.4714 16.4019 11.4414C16.4019 9.37141 14.7219 7.69141 12.6519 7.69141Z" fill="#0E0E0E" fill-opacity="0.3"/>
</svg>
