<svg width="25" height="25" viewBox="0 0 25 25" fill="none" xmlns="http://www.w3.org/2000/svg">
<g clip-path="url(#clip0_123_445)">
<path d="M19.0854 0.826172H6.33545C3.22885 0.826172 0.710449 3.34457 0.710449 6.45117V19.2012C0.710449 22.3078 3.22885 24.8262 6.33545 24.8262H19.0854C22.1921 24.8262 24.7104 22.3078 24.7104 19.2012V6.45117C24.7104 3.34457 22.1921 0.826172 19.0854 0.826172Z" fill="url(#paint0_radial_123_445)"/>
<path d="M19.0854 0.826172H6.33545C3.22885 0.826172 0.710449 3.34457 0.710449 6.45117V19.2012C0.710449 22.3078 3.22885 24.8262 6.33545 24.8262H19.0854C22.1921 24.8262 24.7104 22.3078 24.7104 19.2012V6.45117C24.7104 3.34457 22.1921 0.826172 19.0854 0.826172Z" fill="url(#paint1_radial_123_445)"/>
<path d="M12.7113 3.45117C10.1652 3.45117 9.84564 3.46233 8.8457 3.5078C7.84764 3.55355 7.16636 3.71152 6.57029 3.94336C5.95361 4.1828 5.43057 4.50314 4.90951 5.02439C4.38798 5.54555 4.06764 6.06858 3.82745 6.68498C3.59495 7.28123 3.43679 7.9628 3.39189 8.96039C3.34717 9.96042 3.33545 10.2801 3.33545 12.8263C3.33545 15.3724 3.3467 15.691 3.39207 16.6909C3.43801 17.689 3.59598 18.3703 3.82764 18.9663C4.06726 19.583 4.38761 20.106 4.90886 20.6271C5.42982 21.1486 5.95286 21.4697 6.56907 21.7092C7.16561 21.941 7.84698 22.099 8.84486 22.1447C9.84489 22.1902 10.1642 22.2014 12.7102 22.2014C15.2565 22.2014 15.5751 22.1902 16.575 22.1447C17.5731 22.099 18.2551 21.941 18.8516 21.7092C19.468 21.4697 19.9903 21.1486 20.5112 20.6271C21.0327 20.106 21.353 19.583 21.5933 18.9666C21.8237 18.3703 21.9819 17.6888 22.0288 16.6911C22.0737 15.6912 22.0854 15.3724 22.0854 12.8263C22.0854 10.2801 22.0737 9.96061 22.0288 8.96058C21.9819 7.96252 21.8237 7.28133 21.5933 6.68527C21.353 6.06858 21.0327 5.54555 20.5112 5.02439C19.9898 4.50295 19.4682 4.18261 18.8511 3.94345C18.2534 3.71152 17.5718 3.55345 16.5737 3.5078C15.5737 3.46233 15.2553 3.45117 12.7084 3.45117H12.7113ZM11.8703 5.14064C12.1199 5.14027 12.3984 5.14064 12.7113 5.14064C15.2145 5.14064 15.5111 5.14964 16.4996 5.19455C17.4137 5.23636 17.9098 5.38908 18.2403 5.51742C18.6778 5.6873 18.9897 5.89045 19.3177 6.21867C19.6458 6.5468 19.8489 6.85927 20.0192 7.2968C20.1475 7.6268 20.3004 8.12292 20.3421 9.03698C20.387 10.0253 20.3967 10.3221 20.3967 12.8241C20.3967 15.3261 20.387 15.623 20.3421 16.6112C20.3003 17.5253 20.1475 18.0214 20.0192 18.3515C19.8493 18.789 19.6458 19.1006 19.3177 19.4285C18.9895 19.7566 18.678 19.9597 18.2403 20.1297C17.9102 20.2586 17.4137 20.4109 16.4996 20.4527C15.5113 20.4976 15.2145 20.5074 12.7113 20.5074C10.208 20.5074 9.91126 20.4976 8.92304 20.4527C8.00898 20.4105 7.51286 20.2578 7.18211 20.1295C6.74467 19.9595 6.43211 19.7565 6.10398 19.4283C5.77586 19.1002 5.57279 18.7885 5.40245 18.3508C5.27411 18.0207 5.1212 17.5245 5.07957 16.6105C5.03467 15.6222 5.02567 15.3254 5.02567 12.8218C5.02567 10.3183 5.03467 10.023 5.07957 9.03464C5.12139 8.12058 5.27411 7.62445 5.40245 7.29398C5.57242 6.85645 5.77586 6.54398 6.10407 6.21586C6.4322 5.88773 6.74467 5.68458 7.1822 5.51433C7.51267 5.38542 8.00898 5.23308 8.92304 5.19108C9.78789 5.15198 10.123 5.14027 11.8703 5.1383V5.14064ZM17.7157 6.69727C17.0946 6.69727 16.5907 7.2007 16.5907 7.82189C16.5907 8.44298 17.0946 8.94689 17.7157 8.94689C18.3368 8.94689 18.8407 8.44298 18.8407 7.82189C18.8407 7.2008 18.3368 6.69689 17.7157 6.69689V6.69727ZM12.7113 8.01173C10.0525 8.01173 7.89686 10.1674 7.89686 12.8263C7.89686 15.4851 10.0525 17.6398 12.7113 17.6398C15.3701 17.6398 17.5251 15.4851 17.5251 12.8263C17.5251 10.1675 15.3699 8.01173 12.7111 8.01173H12.7113ZM12.7113 9.7012C14.4371 9.7012 15.8364 11.1002 15.8364 12.8263C15.8364 14.5521 14.4371 15.9513 12.7113 15.9513C10.9854 15.9513 9.58632 14.5521 9.58632 12.8263C9.58632 11.1002 10.9854 9.7012 12.7113 9.7012Z" fill="white"/>
</g>
<defs>
<radialGradient id="paint0_radial_123_445" cx="0" cy="0" r="1" gradientUnits="userSpaceOnUse" gradientTransform="translate(7.08545 26.6746) rotate(-90) scale(23.7858 22.1227)">
<stop stop-color="#FFDD55"/>
<stop offset="0.1" stop-color="#FFDD55"/>
<stop offset="0.5" stop-color="#FF543E"/>
<stop offset="1" stop-color="#C837AB"/>
</radialGradient>
<radialGradient id="paint1_radial_123_445" cx="0" cy="0" r="1" gradientUnits="userSpaceOnUse" gradientTransform="translate(-3.30964 2.55502) rotate(78.681) scale(10.6324 43.827)">
<stop stop-color="#3771C8"/>
<stop offset="0.128" stop-color="#3771C8"/>
<stop offset="1" stop-color="#6600FF" stop-opacity="0"/>
</radialGradient>
<clipPath id="clip0_123_445">
<rect width="24" height="24" fill="white" transform="translate(0.710449 0.826172)"/>
</clipPath>
</defs>
</svg>
