<svg width="24" height="25" viewBox="0 0 24 25" fill="none" xmlns="http://www.w3.org/2000/svg">
<path d="M22.4217 20.9803L18.203 10.7615C18.1251 10.5728 17.9929 10.4115 17.8232 10.2979C17.6535 10.1844 17.4539 10.1238 17.2498 10.1238C17.0456 10.1238 16.846 10.1844 16.6763 10.2979C16.5067 10.4115 16.3745 10.5728 16.2966 10.7615L12.0778 20.9803C12.0254 21.1056 11.9982 21.24 11.9978 21.3759C11.9975 21.5117 12.024 21.6463 12.0758 21.7719C12.1276 21.8975 12.2038 22.0116 12.2998 22.1077C12.3959 22.2037 12.51 22.2799 12.6356 22.3317C12.7611 22.3835 12.8957 22.4101 13.0316 22.4097C13.1674 22.4094 13.3019 22.3822 13.4272 22.3298C13.5525 22.2773 13.6662 22.2007 13.7618 22.1041C13.8574 22.0076 13.933 21.8931 13.9842 21.7673L14.8434 19.6865H19.6561L20.5153 21.7673C20.5932 21.9561 20.7254 22.1175 20.8951 22.2311C21.0649 22.3447 21.2645 22.4053 21.4688 22.4053C21.6382 22.4052 21.805 22.3633 21.9545 22.2834C22.1039 22.2035 22.2313 22.088 22.3255 21.9471C22.4197 21.8062 22.4777 21.6443 22.4944 21.4757C22.5111 21.307 22.486 21.1369 22.4212 20.9803H22.4217ZM15.6952 17.624L17.25 13.8576L18.8048 17.624H15.6952ZM12.555 16.7296C12.7152 16.5083 12.7811 16.2325 12.7381 15.9627C12.6951 15.6929 12.5468 15.4512 12.3258 15.2906C12.3164 15.2836 11.6227 14.7689 10.6153 13.6626C12.4739 11.1464 13.5267 8.28371 13.9561 6.93652H15.4688C15.7423 6.93652 16.0046 6.82787 16.198 6.63448C16.3913 6.44108 16.5 6.17878 16.5 5.90527C16.5 5.63177 16.3913 5.36947 16.198 5.17607C16.0046 4.98267 15.7423 4.87402 15.4688 4.87402H10.0312V3.93652C10.0312 3.66302 9.9226 3.40072 9.7292 3.20732C9.53581 3.01392 9.2735 2.90527 9 2.90527C8.7265 2.90527 8.46419 3.01392 8.2708 3.20732C8.0774 3.40072 7.96875 3.66302 7.96875 3.93652V4.87402H2.53125C2.25775 4.87402 1.99544 4.98267 1.80205 5.17607C1.60865 5.36947 1.5 5.63177 1.5 5.90527C1.5 6.17878 1.60865 6.44108 1.80205 6.63448C1.99544 6.82787 2.25775 6.93652 2.53125 6.93652H11.7773C11.3311 8.1998 10.5094 10.1943 9.25594 12.0159C7.78359 10.0621 7.23656 8.79793 7.23234 8.78762C7.12456 8.53852 6.92291 8.34196 6.67114 8.24056C6.41937 8.13917 6.13778 8.14112 5.88743 8.246C5.63709 8.35087 5.43819 8.55021 5.33387 8.80078C5.22954 9.05135 5.22821 9.33295 5.33016 9.58449C5.35734 9.64918 6.01219 11.189 7.80797 13.5187C7.85109 13.5745 7.89375 13.6289 7.93641 13.6832C6.09703 15.7621 4.29234 17.0517 3.53719 17.4679C3.29706 17.5989 3.1188 17.8199 3.04162 18.0823C2.96444 18.3447 2.99465 18.627 3.12563 18.8671C3.2566 19.1073 3.47759 19.2855 3.74 19.3627C4.0024 19.4399 4.28472 19.4097 4.52484 19.2787C4.62609 19.2234 6.80297 18.0182 9.28875 15.2667C10.3444 16.3954 11.07 16.9279 11.1136 16.9589C11.2233 17.0385 11.3476 17.0958 11.4794 17.1274C11.6113 17.159 11.748 17.1642 11.8819 17.1429C12.0158 17.1216 12.1442 17.074 12.2597 17.003C12.3751 16.9321 12.4755 16.839 12.555 16.7292V16.7296Z" fill="black"/>
</svg>
