<svg width="15" height="21" viewBox="0 0 15 21" fill="none" xmlns="http://www.w3.org/2000/svg">
<path d="M7.71045 10.3262C7.04741 10.3262 6.41152 10.0628 5.94268 9.59394C5.47384 9.1251 5.21045 8.48921 5.21045 7.82617C5.21045 7.16313 5.47384 6.52725 5.94268 6.0584C6.41152 5.58956 7.04741 5.32617 7.71045 5.32617C8.37349 5.32617 9.00938 5.58956 9.47822 6.0584C9.94706 6.52725 10.2104 7.16313 10.2104 7.82617C10.2104 8.15448 10.1458 8.47957 10.0201 8.78288C9.89451 9.08619 9.71036 9.36179 9.47822 9.59394C9.24607 9.82609 8.97047 10.0102 8.66716 10.1359C8.36384 10.2615 8.03875 10.3262 7.71045 10.3262ZM7.71045 0.826172C5.85393 0.826172 4.07346 1.56367 2.7607 2.87642C1.44795 4.18918 0.710449 5.96966 0.710449 7.82617C0.710449 13.0762 7.71045 20.8262 7.71045 20.8262C7.71045 20.8262 14.7104 13.0762 14.7104 7.82617C14.7104 5.96966 13.973 4.18918 12.6602 2.87642C11.3474 1.56367 9.56697 0.826172 7.71045 0.826172Z" fill="black"/>
</svg>
