<svg width="25" height="25" viewBox="0 0 25 25" fill="none" xmlns="http://www.w3.org/2000/svg">
<path d="M4.37891 3.76123C3.73244 3.76123 3.11245 4.01804 2.65533 4.47516C2.19821 4.93228 1.94141 5.55227 1.94141 6.19873V12.1387C2.76677 11.0874 3.96206 10.3905 5.28356 10.19C6.60505 9.98956 7.95325 10.3007 9.05325 11.06C10.1533 11.8193 10.9222 12.9695 11.2034 14.2762C11.4846 15.583 11.2568 16.9477 10.5664 18.0922V19.5112H20.5039C21.1504 19.5112 21.7704 19.2544 22.2275 18.7973C22.6846 18.3402 22.9414 17.7202 22.9414 17.0737V6.19873C22.9414 5.55227 22.6846 4.93228 22.2275 4.47516C21.7704 4.01804 21.1504 3.76123 20.5039 3.76123H4.37891ZM7.19141 8.26123H17.6914C17.8903 8.26123 18.0811 8.34025 18.2217 8.4809C18.3624 8.62155 18.4414 8.81232 18.4414 9.01123C18.4414 9.21014 18.3624 9.40091 18.2217 9.54156C18.0811 9.68221 17.8903 9.76123 17.6914 9.76123H7.19141C6.99249 9.76123 6.80173 9.68221 6.66108 9.54156C6.52042 9.40091 6.44141 9.21014 6.44141 9.01123C6.44141 8.81232 6.52042 8.62155 6.66108 8.4809C6.80173 8.34025 6.99249 8.26123 7.19141 8.26123ZM12.4414 14.2612C12.4414 14.0623 12.5204 13.8716 12.6611 13.7309C12.8017 13.5902 12.9925 13.5112 13.1914 13.5112H17.6914C17.8903 13.5112 18.0811 13.5902 18.2217 13.7309C18.3624 13.8716 18.4414 14.0623 18.4414 14.2612C18.4414 14.4601 18.3624 14.6509 18.2217 14.7916C18.0811 14.9322 17.8903 15.0112 17.6914 15.0112H13.1914C12.9925 15.0112 12.8017 14.9322 12.6611 14.7916C12.5204 14.6509 12.4414 14.4601 12.4414 14.2612ZM10.1914 15.3862C10.1914 16.4802 9.75681 17.5295 8.98322 18.303C8.20963 19.0766 7.16042 19.5112 6.06641 19.5112C4.97239 19.5112 3.92318 19.0766 3.14959 18.303C2.376 17.5295 1.94141 16.4802 1.94141 15.3862C1.94141 14.2922 2.376 13.243 3.14959 12.4694C3.92318 11.6958 4.97239 11.2612 6.06641 11.2612C7.16042 11.2612 8.20963 11.6958 8.98322 12.4694C9.75681 13.243 10.1914 14.2922 10.1914 15.3862ZM9.44141 19.4077C8.49674 20.2029 7.30117 20.6381 6.06641 20.6362C4.83165 20.6381 3.63607 20.2029 2.69141 19.4077V22.5112C2.69144 22.6449 2.72722 22.7762 2.79504 22.8915C2.86286 23.0067 2.96025 23.1017 3.07714 23.1666C3.19402 23.2316 3.32614 23.2641 3.45981 23.2608C3.59349 23.2575 3.72385 23.2186 3.83741 23.148L6.06641 21.7605L8.29541 23.148C8.40902 23.2186 8.53945 23.2576 8.67319 23.2608C8.80692 23.2641 8.9391 23.2315 9.056 23.1665C9.17291 23.1014 9.27029 23.0063 9.33806 22.891C9.40583 22.7756 9.44151 22.6443 9.44141 22.5105V19.4077Z" fill="#0E0E0E" fill-opacity="0.3"/>
</svg>
