<svg width="24" height="24" viewBox="0 0 24 24" fill="none" xmlns="http://www.w3.org/2000/svg">
<g clip-path="url(#clip0_2538_1039)">
<path d="M7.22681 12.4785L9.71643 14.9682C10.1155 15.3673 10.7657 15.3572 11.1522 14.9459L16.733 9.008" stroke="#0E0E0E" stroke-opacity="0.3" stroke-width="2" stroke-linecap="round"/>
<path d="M9.4531 2.82737C9.32023 2.34886 9.60006 1.84915 10.0882 1.75802C11.3762 1.51761 12.7007 1.52178 13.9919 1.77328C15.5781 2.0822 17.0706 2.75584 18.3516 3.74093C19.6325 4.72603 20.6668 5.99558 21.3726 7.44923C22.0784 8.90288 22.4364 10.5008 22.4183 12.1166C22.4003 13.7325 22.0066 15.3219 21.2684 16.7594C20.5302 18.1969 19.4678 19.443 18.1651 20.3992C16.8624 21.3553 15.3552 21.9954 13.7625 22.2687C12.4659 22.4913 11.1417 22.4658 9.85946 22.1966C9.37344 22.0946 9.10486 21.5887 9.24841 21.1133V21.1133C9.39196 20.6379 9.89336 20.3738 10.3811 20.4671C11.3944 20.6608 12.4367 20.6716 13.4583 20.4962C14.776 20.2701 16.0231 19.7405 17.101 18.9494C18.1788 18.1582 19.0578 17.1273 19.6686 15.9379C20.2793 14.7485 20.6051 13.4334 20.62 12.0965C20.635 10.7596 20.3388 9.43747 19.7548 8.23474C19.1708 7.03201 18.3151 5.98159 17.2552 5.16654C16.1954 4.35148 14.9605 3.79412 13.6481 3.53852C12.6307 3.34037 11.5884 3.32778 10.5711 3.49879C10.0813 3.58112 9.58597 3.30589 9.4531 2.82737V2.82737Z" fill="#0E0E0E" fill-opacity="0.3"/>
<path d="M3.6099 7.50221C3.1722 7.26757 3.0044 6.71996 3.27589 6.30412C4.20671 4.87839 5.47314 3.70224 6.96369 2.87921C7.39844 2.63916 7.93217 2.84692 8.13386 3.30074V3.30074C8.33555 3.75456 8.12819 4.28196 7.69783 4.5298C6.56794 5.18051 5.60013 6.07932 4.86778 7.1581C4.58885 7.56899 4.04759 7.73685 3.6099 7.50221V7.50221Z" fill="#0E0E0E" fill-opacity="0.3"/>
<path d="M3.05796 15.2651C2.59147 15.4355 2.07117 15.196 1.94167 14.7166C1.4977 13.0728 1.46339 11.3448 1.84178 9.68471C1.95214 9.20051 2.46253 8.94063 2.93542 9.09232V9.09232C3.40831 9.244 3.66373 9.74987 3.5621 10.236C3.29528 11.5123 3.32149 12.8328 3.63876 14.0975C3.7596 14.5792 3.52445 15.0948 3.05796 15.2651V15.2651Z" fill="#0E0E0E" fill-opacity="0.3"/>
<path d="M8.246 20.7482C8.05016 21.2046 7.51914 21.4192 7.08135 21.1847C5.58035 20.3809 4.29891 19.2211 3.34986 17.8075C3.07306 17.3951 3.23381 16.8454 3.66845 16.6052V16.6052C4.10309 16.3649 4.64647 16.5258 4.93066 16.9331C5.67679 18.0024 6.65607 18.8887 7.79423 19.5248C8.22773 19.7671 8.44185 20.2918 8.246 20.7482V20.7482Z" fill="#0E0E0E" fill-opacity="0.3"/>
</g>
<defs>
<clipPath id="clip0_2538_1039">
<rect width="24" height="24" fill="white"/>
</clipPath>
</defs>
</svg>
