<svg width="35" height="35" viewBox="0 0 35 35" fill="none" xmlns="http://www.w3.org/2000/svg">
<mask id="path-1-inside-1_3634_318" fill="white">
<path d="M14.7448 6.92555C14.6037 6.40861 14.908 5.87099 15.4347 5.77237C16.9133 5.49551 18.434 5.5005 19.9161 5.79032C21.7163 6.14233 23.411 6.90504 24.8682 8.01907C26.3255 9.1331 27.5059 10.5684 28.3178 12.2132C29.1296 13.8581 29.5509 15.6681 29.5489 17.5024C29.5469 19.3366 29.1215 21.1457 28.306 22.7887C27.4906 24.4318 26.3069 25.8645 24.8472 26.9752C23.3875 28.086 21.6911 28.845 19.8902 29.193C18.4074 29.4795 16.8867 29.4811 15.4087 29.201C14.8822 29.1012 14.5791 28.5629 14.7214 28.0463V28.0463C14.8636 27.5297 15.3974 27.2312 15.9254 27.3226C17.1139 27.5284 18.3325 27.5176 19.522 27.2877C21.0298 26.9964 22.45 26.361 23.6721 25.431C24.8941 24.501 25.8851 23.3016 26.5678 21.926C27.2506 20.5505 27.6067 19.0359 27.6084 17.5002C27.6101 15.9645 27.2574 14.4492 26.5777 13.0721C25.898 11.695 24.9097 10.4934 23.6897 9.56071C22.4697 8.62803 21.0509 7.98949 19.5437 7.69478C18.3548 7.46228 17.1362 7.44872 15.9473 7.65191C15.4191 7.74218 14.8859 7.4425 14.7448 6.92555V6.92555Z"/>
</mask>
<path d="M14.7448 6.92555C14.6037 6.40861 14.908 5.87099 15.4347 5.77237C16.9133 5.49551 18.434 5.5005 19.9161 5.79032C21.7163 6.14233 23.411 6.90504 24.8682 8.01907C26.3255 9.1331 27.5059 10.5684 28.3178 12.2132C29.1296 13.8581 29.5509 15.6681 29.5489 17.5024C29.5469 19.3366 29.1215 21.1457 28.306 22.7887C27.4906 24.4318 26.3069 25.8645 24.8472 26.9752C23.3875 28.086 21.6911 28.845 19.8902 29.193C18.4074 29.4795 16.8867 29.4811 15.4087 29.201C14.8822 29.1012 14.5791 28.5629 14.7214 28.0463V28.0463C14.8636 27.5297 15.3974 27.2312 15.9254 27.3226C17.1139 27.5284 18.3325 27.5176 19.522 27.2877C21.0298 26.9964 22.45 26.361 23.6721 25.431C24.8941 24.501 25.8851 23.3016 26.5678 21.926C27.2506 20.5505 27.6067 19.0359 27.6084 17.5002C27.6101 15.9645 27.2574 14.4492 26.5777 13.0721C25.898 11.695 24.9097 10.4934 23.6897 9.56071C22.4697 8.62803 21.0509 7.98949 19.5437 7.69478C18.3548 7.46228 17.1362 7.44872 15.9473 7.65191C15.4191 7.74218 14.8859 7.4425 14.7448 6.92555V6.92555Z" stroke="#0E0E0E" stroke-opacity="0.3" stroke-width="4" mask="url(#path-1-inside-1_3634_318)"/>
<mask id="path-2-inside-2_3634_318" fill="white">
<path d="M13.4907 27.6277C13.2883 28.1238 12.7197 28.3654 12.2417 28.1233C10.3979 27.1895 8.82812 25.7918 7.68743 24.0683C7.39168 23.6215 7.56595 23.0288 8.03537 22.7703V22.7703C8.50479 22.5119 9.09106 22.6862 9.39384 23.1283C10.3111 24.4677 11.5417 25.5634 12.9781 26.3197C13.4523 26.5693 13.6932 27.1315 13.4907 27.6277V27.6277Z"/>
</mask>
<path d="M13.4907 27.6277C13.2883 28.1238 12.7197 28.3654 12.2417 28.1233C10.3979 27.1895 8.82812 25.7918 7.68743 24.0683C7.39168 23.6215 7.56595 23.0288 8.03537 22.7703V22.7703C8.50479 22.5119 9.09106 22.6862 9.39384 23.1283C10.3111 24.4677 11.5417 25.5634 12.9781 26.3197C13.4523 26.5693 13.6932 27.1315 13.4907 27.6277V27.6277Z" stroke="#0E0E0E" stroke-opacity="0.3" stroke-width="4" mask="url(#path-2-inside-2_3634_318)"/>
<mask id="path-3-inside-3_3634_318" fill="white">
<path d="M7.30137 21.1309C6.79602 21.3091 6.23775 21.0446 6.1012 20.5264C5.57456 18.5278 5.57668 16.426 6.10736 14.4285C6.24495 13.9107 6.80375 13.6472 7.30875 13.8265V13.8265C7.81375 14.0057 8.07286 14.5597 7.94349 15.0798C7.55155 16.6551 7.54989 18.3028 7.93864 19.8789C8.06697 20.3992 7.80673 20.9527 7.30137 21.1309V21.1309Z"/>
</mask>
<path d="M7.30137 21.1309C6.79602 21.3091 6.23775 21.0446 6.1012 20.5264C5.57456 18.5278 5.57668 16.426 6.10736 14.4285C6.24495 13.9107 6.80375 13.6472 7.30875 13.8265V13.8265C7.81375 14.0057 8.07286 14.5597 7.94349 15.0798C7.55155 16.6551 7.54989 18.3028 7.93864 19.8789C8.06697 20.3992 7.80673 20.9527 7.30137 21.1309V21.1309Z" stroke="#0E0E0E" stroke-opacity="0.3" stroke-width="4" mask="url(#path-3-inside-3_3634_318)"/>
<mask id="path-4-inside-4_3634_318" fill="white">
<path d="M7.84414 12.5734C7.36531 12.3328 7.16883 11.7471 7.44752 11.2894C8.52241 9.52414 10.0383 8.06828 11.8456 7.0656C12.3142 6.80563 12.8915 7.02563 13.1125 7.51379V7.51379C13.3335 8.00195 13.114 8.57283 12.6495 8.84018C11.2427 9.65011 10.0543 10.7914 9.18816 12.1644C8.90226 12.6176 8.32297 12.8139 7.84414 12.5734V12.5734Z"/>
</mask>
<path d="M7.84414 12.5734C7.36531 12.3328 7.16883 11.7471 7.44752 11.2894C8.52241 9.52414 10.0383 8.06828 11.8456 7.0656C12.3142 6.80563 12.8915 7.02563 13.1125 7.51379V7.51379C13.3335 8.00195 13.114 8.57283 12.6495 8.84018C11.2427 9.65011 10.0543 10.7914 9.18816 12.1644C8.90226 12.6176 8.32297 12.8139 7.84414 12.5734V12.5734Z" stroke="#0E0E0E" stroke-opacity="0.3" stroke-width="4" mask="url(#path-4-inside-4_3634_318)"/>
<path d="M23.7313 14.5837C24.0781 14.2277 24.0707 13.6579 23.7146 13.3111C23.3586 12.9642 22.7888 12.9717 22.4419 13.3278L23.7313 14.5837ZM16.2549 20.9692L15.6102 20.3412L16.2549 20.9692ZM11.4472 18.7057L14.1571 21.5758L15.4659 20.3401L12.756 17.47L11.4472 18.7057ZM16.8996 21.5972L23.7313 14.5837L22.4419 13.3278L15.6102 20.3412L16.8996 21.5972ZM14.1571 21.5758C14.8989 22.3615 16.1457 22.3712 16.8996 21.5972L15.6102 20.3412C15.5705 20.3819 15.5049 20.3814 15.4659 20.3401L14.1571 21.5758Z" fill="#0E0E0E" fill-opacity="0.3"/>
</svg>
