<svg width="25" height="25" viewBox="0 0 25 25" fill="none" xmlns="http://www.w3.org/2000/svg">
<path d="M20.2814 15.2512L19.2814 13.5912C19.0714 13.2212 18.8814 12.5212 18.8814 12.1112V9.58123C18.8814 7.23123 17.5014 5.20123 15.5114 4.25123C14.9914 3.33123 14.0314 2.76123 12.9314 2.76123C11.8414 2.76123 10.8614 3.35123 10.3414 4.28123C8.39141 5.25123 7.04141 7.26123 7.04141 9.58123V12.1112C7.04141 12.5212 6.85141 13.2212 6.64141 13.5812L5.63141 15.2512C5.23141 15.9212 5.14141 16.6612 5.39141 17.3412C5.63141 18.0112 6.20141 18.5312 6.94141 18.7812C8.88141 19.4412 10.9214 19.7612 12.9614 19.7612C15.0014 19.7612 17.0414 19.4412 18.9814 18.7912C19.6814 18.5612 20.2214 18.0312 20.4814 17.3412C20.7414 16.6512 20.6714 15.8912 20.2814 15.2512Z" fill="#0E0E0E" fill-opacity="0.3"/>
<path d="M15.7714 20.7712C15.3514 21.9312 14.2414 22.7612 12.9414 22.7612C12.1514 22.7612 11.3714 22.4412 10.8214 21.8712C10.5014 21.5712 10.2614 21.1712 10.1214 20.7612C10.2514 20.7812 10.3814 20.7912 10.5214 20.8112C10.7514 20.8412 10.9914 20.8712 11.2314 20.8912C11.8014 20.9412 12.3814 20.9712 12.9614 20.9712C13.5314 20.9712 14.1014 20.9412 14.6614 20.8912C14.8714 20.8712 15.0814 20.8612 15.2814 20.8312C15.4414 20.8112 15.6014 20.7912 15.7714 20.7712Z" fill="#0E0E0E" fill-opacity="0.3"/>
</svg>
