<svg width="25" height="25" viewBox="0 0 25 25" fill="none" xmlns="http://www.w3.org/2000/svg">
<path d="M22.9414 12.7612C22.9414 7.25123 18.4514 2.76123 12.9414 2.76123C7.43141 2.76123 2.94141 7.25123 2.94141 12.7612C2.94141 15.6612 4.19141 18.2712 6.17141 20.1012C6.17141 20.1112 6.17141 20.1112 6.16141 20.1212C6.26141 20.2212 6.38141 20.3012 6.48141 20.3912C6.54141 20.4412 6.59141 20.4912 6.65141 20.5312C6.83141 20.6812 7.03141 20.8212 7.22141 20.9612C7.29141 21.0112 7.35141 21.0512 7.42141 21.1012C7.61141 21.2312 7.81141 21.3512 8.02141 21.4612C8.09141 21.5012 8.17141 21.5512 8.24141 21.5912C8.44141 21.7012 8.65141 21.8012 8.87141 21.8912C8.95141 21.9312 9.03141 21.9712 9.11141 22.0012C9.33141 22.0912 9.55141 22.1712 9.77141 22.2412C9.85141 22.2712 9.93141 22.3012 10.0114 22.3212C10.2514 22.3912 10.4914 22.4512 10.7314 22.5112C10.8014 22.5312 10.8714 22.5512 10.9514 22.5612C11.2314 22.6212 11.5114 22.6612 11.8014 22.6912C11.8414 22.6912 11.8814 22.7012 11.9214 22.7112C12.2614 22.7412 12.6014 22.7612 12.9414 22.7612C13.2814 22.7612 13.6214 22.7412 13.9514 22.7112C13.9914 22.7112 14.0314 22.7012 14.0714 22.6912C14.3614 22.6612 14.6414 22.6212 14.9214 22.5612C14.9914 22.5512 15.0614 22.5212 15.1414 22.5112C15.3814 22.4512 15.6314 22.4012 15.8614 22.3212C15.9414 22.2912 16.0214 22.2612 16.1014 22.2412C16.3214 22.1612 16.5514 22.0912 16.7614 22.0012C16.8414 21.9712 16.9214 21.9312 17.0014 21.8912C17.2114 21.8012 17.4214 21.7012 17.6314 21.5912C17.7114 21.5512 17.7814 21.5012 17.8514 21.4612C18.0514 21.3412 18.2514 21.2312 18.4514 21.1012C18.5214 21.0612 18.5814 21.0112 18.6514 20.9612C18.8514 20.8212 19.0414 20.6812 19.2214 20.5312C19.2814 20.4812 19.3314 20.4312 19.3914 20.3912C19.5014 20.3012 19.6114 20.2112 19.7114 20.1212C19.7114 20.1112 19.7114 20.1112 19.7014 20.1012C21.6914 18.2712 22.9414 15.6612 22.9414 12.7612ZM17.8814 17.7312C15.1714 15.9112 10.7314 15.9112 8.00141 17.7312C7.56141 18.0212 7.20141 18.3612 6.90141 18.7312C5.38141 17.1912 4.44141 15.0812 4.44141 12.7612C4.44141 8.07123 8.25141 4.26123 12.9414 4.26123C17.6314 4.26123 21.4414 8.07123 21.4414 12.7612C21.4414 15.0812 20.5014 17.1912 18.9814 18.7312C18.6914 18.3612 18.3214 18.0212 17.8814 17.7312Z" fill="url(#paint0_linear_379_253)"/>
<path d="M12.9414 7.69141C10.8714 7.69141 9.19141 9.37141 9.19141 11.4414C9.19141 13.4714 10.7814 15.1214 12.8914 15.1814C12.9214 15.1814 12.9614 15.1814 12.9814 15.1814C13.0014 15.1814 13.0314 15.1814 13.0514 15.1814C13.0614 15.1814 13.0714 15.1814 13.0714 15.1814C15.0914 15.1114 16.6814 13.4714 16.6914 11.4414C16.6914 9.37141 15.0114 7.69141 12.9414 7.69141Z" fill="url(#paint1_linear_379_253)"/>
<defs>
<linearGradient id="paint0_linear_379_253" x1="12.9414" y1="2.76123" x2="12.9414" y2="22.7612" gradientUnits="userSpaceOnUse">
<stop stop-color="#108D8B"/>
<stop offset="1" stop-color="#053B40"/>
</linearGradient>
<linearGradient id="paint1_linear_379_253" x1="12.9414" y1="7.69141" x2="12.9414" y2="15.1814" gradientUnits="userSpaceOnUse">
<stop stop-color="#108D8B"/>
<stop offset="1" stop-color="#053B40"/>
</linearGradient>
</defs>
</svg>
