<svg width="25" height="25" viewBox="0 0 25 25" fill="none" xmlns="http://www.w3.org/2000/svg">
<path d="M19.4918 14.7502L18.4918 13.0902C18.2818 12.7202 18.0918 12.0202 18.0918 11.6102V9.08019C18.0918 6.73019 16.7118 4.70019 14.7218 3.75019C14.2018 2.83019 13.2418 2.26019 12.1418 2.26019C11.0518 2.26019 10.0718 2.85019 9.5518 3.78019C7.6018 4.75019 6.2518 6.76019 6.2518 9.08019V11.6102C6.2518 12.0202 6.0618 12.7202 5.8518 13.0802L4.8418 14.7502C4.4418 15.4202 4.3518 16.1602 4.6018 16.8402C4.8418 17.5102 5.4118 18.0302 6.1518 18.2802C8.0918 18.9402 10.1318 19.2602 12.1718 19.2602C14.2118 19.2602 16.2518 18.9402 18.1918 18.2902C18.8918 18.0602 19.4318 17.5302 19.6918 16.8402C19.9518 16.1502 19.8818 15.3902 19.4918 14.7502Z" fill="url(#paint0_linear_2533_10)"/>
<path d="M14.9819 20.2702C14.5619 21.4302 13.4519 22.2602 12.1519 22.2602C11.3619 22.2602 10.5819 21.9402 10.0319 21.3702C9.71191 21.0702 9.47191 20.6702 9.33191 20.2602C9.46191 20.2802 9.59191 20.2902 9.73191 20.3102C9.96191 20.3402 10.2019 20.3702 10.4419 20.3902C11.0119 20.4402 11.5919 20.4702 12.1719 20.4702C12.7419 20.4702 13.3119 20.4402 13.8719 20.3902C14.0819 20.3702 14.2919 20.3602 14.4919 20.3302C14.6519 20.3102 14.8119 20.2902 14.9819 20.2702Z" fill="url(#paint1_linear_2533_10)"/>
<circle cx="16.8461" cy="5.26019" r="2.5" fill="#1FA7A8" stroke="white"/>
<defs>
<linearGradient id="paint0_linear_2533_10" x1="12.1542" y1="2.26019" x2="12.1542" y2="19.2602" gradientUnits="userSpaceOnUse">
<stop stop-color="#108D8B"/>
<stop offset="1" stop-color="#053B40"/>
</linearGradient>
<linearGradient id="paint1_linear_2533_10" x1="12.1569" y1="20.2602" x2="12.1569" y2="22.2602" gradientUnits="userSpaceOnUse">
<stop stop-color="#108D8B"/>
<stop offset="1" stop-color="#053E43"/>
</linearGradient>
</defs>
</svg>
