<svg width="24" height="24" viewBox="0 0 24 24" fill="none" xmlns="http://www.w3.org/2000/svg">
<g clip-path="url(#clip0_2538_1048)">
<path d="M7.24182 12.477L9.7213 14.9565C10.1204 15.3556 10.7705 15.3455 11.1571 14.9343L16.718 9.01742" stroke="url(#paint0_linear_2538_1048)" stroke-width="2" stroke-linecap="round"/>
<path d="M9.4611 2.85628C9.32865 2.37927 9.6076 1.88114 10.0943 1.7903C11.3781 1.55064 12.6984 1.55479 13.9856 1.8055C15.5668 2.11345 17.0546 2.78497 18.3315 3.76696C19.6085 4.74895 20.6395 6.0145 21.3431 7.46357C22.0466 8.91264 22.4035 10.5055 22.3855 12.1163C22.3675 13.727 21.975 15.3115 21.2392 16.7444C20.5033 18.1774 19.4442 19.4195 18.1457 20.3727C16.8471 21.3259 15.3446 21.9639 13.7569 22.2364C12.4644 22.4582 11.1444 22.4328 9.86619 22.1645C9.3817 22.0628 9.11396 21.5585 9.25706 21.0846V21.0846C9.40016 20.6107 9.89998 20.3474 10.3862 20.4404C11.3963 20.6335 12.4353 20.6443 13.4537 20.4695C14.7673 20.244 16.0104 19.7161 17.0849 18.9275C18.1593 18.1389 19.0356 17.1111 19.6444 15.9255C20.2532 14.7399 20.5779 13.4289 20.5929 12.0962C20.6078 10.7635 20.3125 9.44555 19.7304 8.24661C19.1482 7.04766 18.2952 6.00056 17.2387 5.18807C16.1822 4.37558 14.9511 3.81998 13.6429 3.56518C12.6287 3.36766 11.5897 3.35511 10.5756 3.52558C10.0874 3.60765 9.59356 3.33328 9.4611 2.85628V2.85628Z" fill="url(#paint1_linear_2538_1048)"/>
<path d="M3.63632 7.51638C3.20001 7.28248 3.03274 6.73659 3.30337 6.32206C4.23125 4.90083 5.4937 3.72838 6.97955 2.90795C7.41293 2.66865 7.94498 2.87576 8.14603 3.32815V3.32815C8.34708 3.78054 8.14038 4.30627 7.71138 4.55333C6.58504 5.20199 5.62028 6.09798 4.89025 7.17336C4.61219 7.58295 4.07264 7.75028 3.63632 7.51638V7.51638Z" fill="url(#paint2_linear_2538_1048)"/>
<path d="M3.08599 15.2548C2.62096 15.4246 2.1023 15.186 1.97322 14.7081C1.53064 13.0695 1.49644 11.3469 1.87364 9.69202C1.98366 9.20934 2.49244 8.95028 2.96383 9.10149V9.10149C3.43523 9.2527 3.68985 9.75697 3.58854 10.2415C3.32256 11.5138 3.34869 12.8302 3.66496 14.0909C3.78542 14.5711 3.55101 15.085 3.08599 15.2548V15.2548Z" fill="url(#paint3_linear_2538_1048)"/>
<path d="M8.25785 20.7206C8.06262 21.1756 7.53328 21.3895 7.09686 21.1558C5.60059 20.3545 4.32319 19.1984 3.37714 17.7892C3.1012 17.3782 3.26144 16.8302 3.69472 16.5907V16.5907C4.12799 16.3512 4.66965 16.5116 4.95295 16.9176C5.69673 17.9835 6.67292 18.867 7.8075 19.5011C8.23963 19.7427 8.45307 20.2657 8.25785 20.7206V20.7206Z" fill="url(#paint4_linear_2538_1048)"/>
</g>
<defs>
<linearGradient id="paint0_linear_2538_1048" x1="11.9799" y1="9.01742" x2="11.9799" y2="15.6859" gradientUnits="userSpaceOnUse">
<stop stop-color="#0F8A88"/>
<stop offset="1" stop-color="#064549"/>
</linearGradient>
<linearGradient id="paint1_linear_2538_1048" x1="1.99267" y1="14.7788" x2="22.0075" y2="9.22119" gradientUnits="userSpaceOnUse">
<stop stop-color="#0F8A88"/>
<stop offset="1" stop-color="#064549"/>
</linearGradient>
<linearGradient id="paint2_linear_2538_1048" x1="7.09288" y1="21.1537" x2="16.9071" y2="2.8463" gradientUnits="userSpaceOnUse">
<stop stop-color="#0F8A88"/>
<stop offset="1" stop-color="#064549"/>
</linearGradient>
<linearGradient id="paint3_linear_2538_1048" x1="15.5623" y1="21.756" x2="8.43773" y2="2.24396" gradientUnits="userSpaceOnUse">
<stop stop-color="#0F8A88"/>
<stop offset="1" stop-color="#064549"/>
</linearGradient>
<linearGradient id="paint4_linear_2538_1048" x1="21.5445" y1="16.0958" x2="2.45576" y2="7.90424" gradientUnits="userSpaceOnUse">
<stop stop-color="#0F8A88"/>
<stop offset="1" stop-color="#064549"/>
</linearGradient>
<clipPath id="clip0_2538_1048">
<rect width="24" height="24" fill="white"/>
</clipPath>
</defs>
</svg>
