<svg width="24" height="25" viewBox="0 0 24 25" fill="none" xmlns="http://www.w3.org/2000/svg">
<path d="M17 9.65527H7V7.65527H17M17 13.6553H7V11.6553H17M14 17.6553H7V15.6553H14M12 3.65527C12.2652 3.65527 12.5196 3.76063 12.7071 3.94817C12.8946 4.1357 13 4.39006 13 4.65527C13 4.92049 12.8946 5.17484 12.7071 5.36238C12.5196 5.54992 12.2652 5.65527 12 5.65527C11.7348 5.65527 11.4804 5.54992 11.2929 5.36238C11.1054 5.17484 11 4.92049 11 4.65527C11 4.39006 11.1054 4.1357 11.2929 3.94817C11.4804 3.76063 11.7348 3.65527 12 3.65527ZM19 3.65527H14.82C14.4 2.49527 13.3 1.65527 12 1.65527C10.7 1.65527 9.6 2.49527 9.18 3.65527H5C4.46957 3.65527 3.96086 3.86599 3.58579 4.24106C3.21071 4.61613 3 5.12484 3 5.65527V19.6553C3 20.1857 3.21071 20.6944 3.58579 21.0695C3.96086 21.4446 4.46957 21.6553 5 21.6553H19C19.5304 21.6553 20.0391 21.4446 20.4142 21.0695C20.7893 20.6944 21 20.1857 21 19.6553V5.65527C21 5.12484 20.7893 4.61613 20.4142 4.24106C20.0391 3.86599 19.5304 3.65527 19 3.65527Z" fill="black"/>
</svg>
