<svg width="24" height="25" viewBox="0 0 24 25" fill="none" xmlns="http://www.w3.org/2000/svg">
<path d="M22 12.604C22 7.094 17.51 2.604 12 2.604C6.49 2.604 2 7.094 2 12.604C2 15.504 3.25 18.114 5.23 19.944C5.23 19.954 5.23 19.954 5.22 19.964C5.32 20.064 5.44 20.144 5.54 20.234C5.6 20.284 5.65 20.334 5.71 20.374C5.89 20.524 6.09 20.664 6.28 20.804C6.35 20.854 6.41 20.894 6.48 20.944C6.67 21.074 6.87 21.194 7.08 21.304C7.15 21.344 7.23 21.394 7.3 21.434C7.5 21.544 7.71 21.644 7.93 21.734C8.01 21.774 8.09 21.814 8.17 21.844C8.39 21.934 8.61 22.014 8.83 22.084C8.91 22.114 8.99 22.144 9.07 22.164C9.31 22.234 9.55 22.294 9.79 22.354C9.86 22.374 9.93 22.394 10.01 22.404C10.29 22.464 10.57 22.504 10.86 22.534C10.9 22.534 10.94 22.544 10.98 22.554C11.32 22.584 11.66 22.604 12 22.604C12.34 22.604 12.68 22.584 13.01 22.554C13.05 22.554 13.09 22.544 13.13 22.534C13.42 22.504 13.7 22.464 13.98 22.404C14.05 22.394 14.12 22.364 14.2 22.354C14.44 22.294 14.69 22.244 14.92 22.164C15 22.134 15.08 22.104 15.16 22.084C15.38 22.004 15.61 21.934 15.82 21.844C15.9 21.814 15.98 21.774 16.06 21.734C16.27 21.644 16.48 21.544 16.69 21.434C16.77 21.394 16.84 21.344 16.91 21.304C17.11 21.184 17.31 21.074 17.51 20.944C17.58 20.904 17.64 20.854 17.71 20.804C17.91 20.664 18.1 20.524 18.28 20.374C18.34 20.324 18.39 20.274 18.45 20.234C18.56 20.144 18.67 20.054 18.77 19.964C18.77 19.954 18.77 19.954 18.76 19.944C20.75 18.114 22 15.504 22 12.604ZM16.94 17.574C14.23 15.754 9.79 15.754 7.06 17.574C6.62 17.864 6.26 18.204 5.96 18.574C4.44 17.034 3.5 14.924 3.5 12.604C3.5 7.914 7.31 4.104 12 4.104C16.69 4.104 20.5 7.914 20.5 12.604C20.5 14.924 19.56 17.034 18.04 18.574C17.75 18.204 17.38 17.864 16.94 17.574Z" fill="#0E0E0E"/>
<path d="M12 7.53418C9.93 7.53418 8.25 9.21418 8.25 11.2842C8.25 13.3142 9.84 14.9642 11.95 15.0242C11.98 15.0242 12.02 15.0242 12.04 15.0242C12.06 15.0242 12.09 15.0242 12.11 15.0242C12.12 15.0242 12.13 15.0242 12.13 15.0242C14.15 14.9542 15.74 13.3142 15.75 11.2842C15.75 9.21418 14.07 7.53418 12 7.53418Z" fill="#0E0E0E"/>
</svg>
