<svg width="22" height="20" viewBox="0 0 22 20" fill="none" xmlns="http://www.w3.org/2000/svg">
<path d="M3.08936 0.260254C2.44289 0.260254 1.8229 0.517061 1.36578 0.974181C0.908663 1.4313 0.651855 2.05129 0.651855 2.69775V8.63775C1.47722 7.58642 2.67251 6.88948 3.994 6.68903C5.3155 6.48858 6.6637 6.79972 7.7637 7.55901C8.86371 8.3183 9.63269 9.46857 9.91386 10.7753C10.195 12.082 9.96721 13.4467 9.27686 14.5913V16.0103H19.2144C19.8608 16.0103 20.4808 15.7534 20.9379 15.2963C21.395 14.8392 21.6519 14.2192 21.6519 13.5728V2.69775C21.6519 2.05129 21.395 1.4313 20.9379 0.974181C20.4808 0.517061 19.8608 0.260254 19.2144 0.260254H3.08936ZM5.90186 4.76025H16.4019C16.6008 4.76025 16.7915 4.83927 16.9322 4.97992C17.0728 5.12058 17.1519 5.31134 17.1519 5.51025C17.1519 5.70917 17.0728 5.89993 16.9322 6.04058C16.7915 6.18124 16.6008 6.26025 16.4019 6.26025H5.90186C5.70294 6.26025 5.51218 6.18124 5.37153 6.04058C5.23087 5.89993 5.15186 5.70917 5.15186 5.51025C5.15186 5.31134 5.23087 5.12058 5.37153 4.97992C5.51218 4.83927 5.70294 4.76025 5.90186 4.76025ZM11.1519 10.7603C11.1519 10.5613 11.2309 10.3706 11.3715 10.2299C11.5122 10.0893 11.7029 10.0103 11.9019 10.0103H16.4019C16.6008 10.0103 16.7915 10.0893 16.9322 10.2299C17.0728 10.3706 17.1519 10.5613 17.1519 10.7603C17.1519 10.9592 17.0728 11.1499 16.9322 11.2906C16.7915 11.4312 16.6008 11.5103 16.4019 11.5103H11.9019C11.7029 11.5103 11.5122 11.4312 11.3715 11.2906C11.2309 11.1499 11.1519 10.9592 11.1519 10.7603ZM8.90186 11.8853C8.90186 12.9793 8.46726 14.0285 7.69367 14.8021C6.92008 15.5757 5.87087 16.0103 4.77686 16.0103C3.68284 16.0103 2.63363 15.5757 1.86004 14.8021C1.08645 14.0285 0.651855 12.9793 0.651855 11.8853C0.651855 10.7912 1.08645 9.74203 1.86004 8.96844C2.63363 8.19485 3.68284 7.76025 4.77686 7.76025C5.87087 7.76025 6.92008 8.19485 7.69367 8.96844C8.46726 9.74203 8.90186 10.7912 8.90186 11.8853ZM8.15186 15.9068C7.20719 16.7019 6.01162 17.1371 4.77686 17.1353C3.54209 17.1371 2.34652 16.7019 1.40186 15.9068V19.0103C1.40189 19.144 1.43767 19.2752 1.50549 19.3905C1.57331 19.5057 1.6707 19.6007 1.78759 19.6657C1.90447 19.7306 2.03659 19.7631 2.17026 19.7598C2.30394 19.7566 2.4343 19.7176 2.54786 19.647L4.77686 18.2595L7.00586 19.647C7.11946 19.7176 7.2499 19.7566 7.38364 19.7598C7.51737 19.7631 7.64955 19.7305 7.76645 19.6655C7.88336 19.6005 7.98074 19.5053 8.04851 19.39C8.11627 19.2747 8.15196 19.1433 8.15186 19.0095V15.9068Z" fill="url(#paint0_linear_457_407)"/>
<defs>
<linearGradient id="paint0_linear_457_407" x1="11.1519" y1="0.260254" x2="11.1519" y2="19.7601" gradientUnits="userSpaceOnUse">
<stop stop-color="#108D8B"/>
<stop offset="1" stop-color="#053B40"/>
</linearGradient>
</defs>
</svg>
