<svg width="22" height="21" viewBox="0 0 22 21" fill="none" xmlns="http://www.w3.org/2000/svg">
<path d="M3.08936 0.76123C2.44289 0.76123 1.8229 1.01804 1.36578 1.47516C0.908663 1.93228 0.651855 2.55227 0.651855 3.19873V9.13873C1.47722 8.08739 2.67251 7.39045 3.994 7.19C5.3155 6.98956 6.6637 7.3007 7.7637 8.05999C8.86371 8.81928 9.63269 9.96954 9.91386 11.2762C10.195 12.583 9.96721 13.9477 9.27686 15.0922V16.5112H19.2144C19.8608 16.5112 20.4808 16.2544 20.9379 15.7973C21.395 15.3402 21.6519 14.7202 21.6519 14.0737V3.19873C21.6519 2.55227 21.395 1.93228 20.9379 1.47516C20.4808 1.01804 19.8608 0.76123 19.2144 0.76123H3.08936ZM5.90186 5.26123H16.4019C16.6008 5.26123 16.7915 5.34025 16.9322 5.4809C17.0728 5.62155 17.1519 5.81232 17.1519 6.01123C17.1519 6.21014 17.0728 6.40091 16.9322 6.54156C16.7915 6.68221 16.6008 6.76123 16.4019 6.76123H5.90186C5.70294 6.76123 5.51218 6.68221 5.37153 6.54156C5.23087 6.40091 5.15186 6.21014 5.15186 6.01123C5.15186 5.81232 5.23087 5.62155 5.37153 5.4809C5.51218 5.34025 5.70294 5.26123 5.90186 5.26123ZM11.1519 11.2612C11.1519 11.0623 11.2309 10.8716 11.3715 10.7309C11.5122 10.5902 11.7029 10.5112 11.9019 10.5112H16.4019C16.6008 10.5112 16.7915 10.5902 16.9322 10.7309C17.0728 10.8716 17.1519 11.0623 17.1519 11.2612C17.1519 11.4601 17.0728 11.6509 16.9322 11.7916C16.7915 11.9322 16.6008 12.0112 16.4019 12.0112H11.9019C11.7029 12.0112 11.5122 11.9322 11.3715 11.7916C11.2309 11.6509 11.1519 11.4601 11.1519 11.2612ZM8.90186 12.3862C8.90186 13.4802 8.46726 14.5295 7.69367 15.303C6.92008 16.0766 5.87087 16.5112 4.77686 16.5112C3.68284 16.5112 2.63363 16.0766 1.86004 15.303C1.08645 14.5295 0.651855 13.4802 0.651855 12.3862C0.651855 11.2922 1.08645 10.243 1.86004 9.46941C2.63363 8.69583 3.68284 8.26123 4.77686 8.26123C5.87087 8.26123 6.92008 8.69583 7.69367 9.46941C8.46726 10.243 8.90186 11.2922 8.90186 12.3862ZM8.15186 16.4077C7.20719 17.2029 6.01162 17.6381 4.77686 17.6362C3.54209 17.6381 2.34652 17.2029 1.40186 16.4077V19.5112C1.40189 19.6449 1.43767 19.7762 1.50549 19.8915C1.57331 20.0067 1.6707 20.1017 1.78759 20.1666C1.90447 20.2316 2.03659 20.2641 2.17026 20.2608C2.30394 20.2575 2.4343 20.2186 2.54786 20.148L4.77686 18.7605L7.00586 20.148C7.11946 20.2186 7.2499 20.2576 7.38364 20.2608C7.51737 20.2641 7.64955 20.2315 7.76645 20.1665C7.88336 20.1014 7.98074 20.0063 8.04851 19.891C8.11627 19.7756 8.15196 19.6443 8.15186 19.5105V16.4077Z" fill="#0E0E0E" fill-opacity="0.3"/>
</svg>
